<svg width="28" height="18" viewBox="0 0 28 18" fill="none" xmlns="http://www.w3.org/2000/svg">
<mask id="mask0_121_548" style="mask-type:luminance" maskUnits="userSpaceOnUse" x="0" y="0" width="28" height="18">
<path d="M0 0H27.212V17.1759H0V0Z" fill="white"/>
</mask>
<g mask="url(#mask0_121_548)">
<path fill-rule="evenodd" clip-rule="evenodd" d="M4.35007 0.0194702C3.82767 0.0194702 3.40696 0.44102 3.40696 0.964686V13.8574L1.568 12.3109C1.39099 12.162 1.17641 12.0883 0.9629 12.0864C0.688409 12.0841 0.41516 12.2006 0.22401 12.4288C-0.115679 12.8346 -0.0631414 13.4353 0.34153 13.7758L1.80305 15.005V15.0052L2.83496 15.8732L3.62975 16.5416C3.63038 16.542 3.6308 16.5425 3.63144 16.5429L4.36039 17.1558L4.3606 17.1562L4.36081 17.1558L5.09019 16.5423L6.91819 15.0053L6.91798 15.005L8.3795 13.7758C8.78438 13.4353 8.8367 12.8346 8.49702 12.4289C8.15733 12.0231 7.55791 11.9704 7.15324 12.3109L5.31429 13.8575V0.964711C5.31429 0.441045 4.89358 0.0194941 4.37118 0.0194941H4.34965L4.35007 0.0194702ZM11.3884 0.209356C10.7996 0.209356 10.3255 0.683439 10.3255 1.27232C10.3255 1.8612 10.7995 2.33528 11.3884 2.33528H26.1489C26.7378 2.33528 27.2119 1.8612 27.2119 1.27232C27.2119 0.683439 26.7378 0.209356 26.1489 0.209356H11.3884ZM11.3884 5.06372C10.7996 5.06372 10.3255 5.5378 10.3255 6.12668C10.3255 6.71556 10.7995 7.18965 11.3884 7.18965H22.9017C23.4905 7.18965 23.9647 6.71556 23.9647 6.12668C23.9647 5.5378 23.4906 5.06372 22.9017 5.06372H11.3884ZM11.3884 9.91808C10.7996 9.91808 10.3255 10.3922 10.3255 10.981C10.3255 11.5699 10.7995 12.044 11.3884 12.044H19.6545C20.2433 12.044 20.7174 11.5699 20.7174 10.981C20.7174 10.3922 20.2434 9.91808 19.6545 9.91808H11.3884ZM11.3884 14.7724C10.7996 14.7724 10.3255 15.2465 10.3255 15.8354C10.3255 16.4243 10.7995 16.8984 11.3884 16.8984H16.4067C16.9956 16.8984 17.4697 16.4243 17.4697 15.8354C17.4697 15.2465 16.9956 14.7724 16.4067 14.7724H11.3884Z" fill="#737373"/>
</g>
</svg>
