<svg width="14" height="14" viewBox="0 0 14 14" fill="none" xmlns="http://www.w3.org/2000/svg">
<mask id="path-1-inside-1_121_517" fill="white">
<path d="M0 0C0.313056 0.110773 0.648998 0.173828 1 0.173828V10.1738C1 11.2784 1.89543 12.1738 3 12.1738H14V13.1738H3C1.39489 13.1738 0.0842144 11.9133 0.00390625 10.3281L0 10.1738V0Z"/>
</mask>
<path d="M0 0L0.333576 -0.942723L-1 0H0ZM1 0.173828H2L1 -0.826172V0.173828ZM1 10.1738L0 10.1738L0 10.1738L1 10.1738ZM14 12.1738H15L14 11.1738V12.1738ZM14 13.1738V14.1738L15 13.1738H14ZM0.00390625 10.3281L-0.995773 10.3534L-0.994813 10.3787L0.00390625 10.3281ZM0 10.1738H-1L-0.99968 10.1991L0 10.1738ZM0 0L-0.333576 0.942723C0.0795564 1.08891 0.52811 1.17383 1 1.17383V0.173828V-0.826172C0.769885 -0.826172 0.546556 -0.867362 0.333576 -0.942723L0 0ZM1 0.173828H0V10.1738H1H2V0.173828H1ZM1 10.1738L0 10.1738C3.624e-08 11.8307 1.34315 13.1738 3 13.1738V12.1738V11.1738C2.44772 11.1738 2 10.7261 2 10.1738L1 10.1738ZM3 12.1738V13.1738H14V12.1738V11.1738H3V12.1738ZM14 12.1738H13V13.1738H14H15V12.1738H14ZM14 13.1738V12.1738H3V13.1738V14.1738H14V13.1738ZM3 13.1738V12.1738C1.93023 12.1738 1.05612 11.3335 1.00263 10.2775L0.00390625 10.3281L-0.994813 10.3787C-0.887693 12.4931 0.859555 14.1738 3 14.1738V13.1738ZM0.00390625 10.3281L1.00359 10.3028L0.99968 10.1485L0 10.1738L-0.99968 10.1991L-0.995773 10.3534L0.00390625 10.3281ZM0 10.1738H1V0H0H-1V10.1738H0Z" fill="white" mask="url(#path-1-inside-1_121_517)"/>
<line x1="10.5" y1="11.1738" x2="10.5" y2="4.17383" stroke="white"/>
<line x1="3.5" y1="11.1738" x2="3.5" y2="8.17383" stroke="white"/>
<line x1="6.5" y1="11.1738" x2="6.5" y2="2.17383" stroke="white"/>
</svg>
