<svg width="18" height="18" viewBox="0 0 18 18" fill="none" xmlns="http://www.w3.org/2000/svg">
<path d="M8.99996 11C10.1045 11 11 10.1046 11 9.00002C11 7.89545 10.1045 7.00002 8.99996 7.00002C7.89539 7.00002 6.99996 7.89545 6.99996 9.00002C6.99996 10.1046 7.89539 11 8.99996 11Z" stroke="#E0E7FF" stroke-width="1.6" stroke-linecap="round" stroke-linejoin="round"/>
<path d="M13.9333 11C13.8445 11.2011 13.8181 11.4241 13.8573 11.6404C13.8965 11.8567 13.9996 12.0562 14.1533 12.2134L14.1933 12.2534C14.3173 12.3772 14.4156 12.5242 14.4827 12.6861C14.5498 12.848 14.5843 13.0215 14.5843 13.1967C14.5843 13.3719 14.5498 13.5454 14.4827 13.7073C14.4156 13.8691 14.3173 14.0162 14.1933 14.14C14.0695 14.264 13.9224 14.3623 13.7605 14.4294C13.5987 14.4965 13.4252 14.5311 13.25 14.5311C13.0747 14.5311 12.9012 14.4965 12.7394 14.4294C12.5775 14.3623 12.4305 14.264 12.3066 14.14L12.2666 14.1C12.1095 13.9463 11.9099 13.8432 11.6937 13.804C11.4774 13.7648 11.2544 13.7913 11.0533 13.88C10.8561 13.9645 10.6879 14.1048 10.5695 14.2837C10.451 14.4626 10.3875 14.6722 10.3866 14.8867V15C10.3866 15.3536 10.2461 15.6928 9.9961 15.9428C9.74605 16.1929 9.40691 16.3334 9.05329 16.3334C8.69967 16.3334 8.36053 16.1929 8.11048 15.9428C7.86044 15.6928 7.71996 15.3536 7.71996 15V14.94C7.7148 14.7194 7.64337 14.5053 7.51497 14.3258C7.38656 14.1463 7.20712 14.0095 6.99996 13.9334C6.79888 13.8446 6.57583 13.8181 6.35957 13.8573C6.1433 13.8966 5.94374 13.9997 5.78663 14.1534L5.74663 14.1934C5.62279 14.3173 5.47574 14.4157 5.31388 14.4828C5.15202 14.5499 4.97851 14.5844 4.80329 14.5844C4.62807 14.5844 4.45457 14.5499 4.29271 14.4828C4.13084 14.4157 3.98379 14.3173 3.85996 14.1934C3.73599 14.0695 3.63765 13.9225 3.57055 13.7606C3.50345 13.5987 3.46891 13.4252 3.46891 13.25C3.46891 13.0748 3.50345 12.9013 3.57055 12.7394C3.63765 12.5776 3.73599 12.4305 3.85996 12.3067L3.89996 12.2667C4.05365 12.1096 4.15675 11.91 4.19596 11.6937C4.23517 11.4775 4.2087 11.2544 4.11996 11.0534C4.03545 10.8562 3.89513 10.688 3.71627 10.5696C3.53741 10.4511 3.32782 10.3875 3.11329 10.3867H2.99996C2.64634 10.3867 2.3072 10.2462 2.05715 9.99616C1.8071 9.74611 1.66663 9.40698 1.66663 9.05335C1.66663 8.69973 1.8071 8.36059 2.05715 8.11054C2.3072 7.8605 2.64634 7.72002 2.99996 7.72002H3.05996C3.28062 7.71486 3.49463 7.64343 3.67416 7.51503C3.85369 7.38662 3.99044 7.20718 4.06663 7.00002C4.15537 6.79894 4.18184 6.57589 4.14263 6.35963C4.10342 6.14336 4.00032 5.94381 3.84663 5.78669L3.80663 5.74669C3.68266 5.62286 3.58431 5.4758 3.51721 5.31394C3.45011 5.15208 3.41558 4.97857 3.41558 4.80335C3.41558 4.62813 3.45011 4.45463 3.51721 4.29277C3.58431 4.1309 3.68266 3.98385 3.80663 3.86002C3.93046 3.73605 4.07751 3.63771 4.23937 3.57061C4.40124 3.50351 4.57474 3.46897 4.74996 3.46897C4.92518 3.46897 5.09868 3.50351 5.26055 3.57061C5.42241 3.63771 5.56946 3.73605 5.69329 3.86002L5.73329 3.90002C5.89041 4.05371 6.08997 4.15681 6.30623 4.19602C6.5225 4.23524 6.74555 4.20876 6.94663 4.12002H6.99996C7.19714 4.03551 7.3653 3.89519 7.48375 3.71633C7.6022 3.53747 7.66577 3.32788 7.66663 3.11335V3.00002C7.66663 2.6464 7.8071 2.30726 8.05715 2.05721C8.3072 1.80716 8.64634 1.66669 8.99996 1.66669C9.35358 1.66669 9.69272 1.80716 9.94277 2.05721C10.1928 2.30726 10.3333 2.6464 10.3333 3.00002V3.06002C10.3341 3.27454 10.3977 3.48414 10.5162 3.663C10.6346 3.84186 10.8028 3.98218 11 4.06669C11.201 4.15543 11.4241 4.1819 11.6404 4.14269C11.8566 4.10348 12.0562 4.00038 12.2133 3.84669L12.2533 3.80669C12.3771 3.68272 12.5242 3.58437 12.686 3.51727C12.8479 3.45017 13.0214 3.41564 13.1966 3.41564C13.3718 3.41564 13.5453 3.45017 13.7072 3.51727C13.8691 3.58437 14.0161 3.68272 14.14 3.80669C14.2639 3.93052 14.3623 4.07757 14.4294 4.23943C14.4965 4.4013 14.531 4.5748 14.531 4.75002C14.531 4.92524 14.4965 5.09874 14.4294 5.26061C14.3623 5.42247 14.2639 5.56952 14.14 5.69335L14.1 5.73335C13.9463 5.89047 13.8432 6.09003 13.804 6.30629C13.7647 6.52256 13.7912 6.74561 13.88 6.94669V7.00002C13.9645 7.1972 14.1048 7.36536 14.2836 7.48382C14.4625 7.60227 14.6721 7.66583 14.8866 7.66669H15C15.3536 7.66669 15.6927 7.80716 15.9428 8.05721C16.1928 8.30726 16.3333 8.6464 16.3333 9.00002C16.3333 9.35364 16.1928 9.69278 15.9428 9.94283C15.6927 10.1929 15.3536 10.3334 15 10.3334H14.94C14.7254 10.3342 14.5158 10.3978 14.337 10.5162C14.1581 10.6347 14.0178 10.8028 13.9333 11Z" stroke="#E0E7FF" stroke-width="1.6" stroke-linecap="round" stroke-linejoin="round"/>
</svg>
