<svg width="15" height="14" viewBox="0 0 15 14" fill="none" xmlns="http://www.w3.org/2000/svg">
<path d="M10 0.0361328C11.6961 0.278789 13 1.7368 13 3.5C13 5.2632 11.6961 6.72121 10 6.96387V5.94922C11.141 5.71753 12 4.70943 12 3.5C12 2.29051 11.1411 1.28142 10 1.0498V0.0361328Z" fill="#E0E7FF"/>
<circle cx="6.5" cy="3.5" r="3" stroke="#E0E7FF"/>
<path d="M14.5 13.5V12.2361C14.5 10.8657 13.7257 9.61287 12.5 9V9" stroke="#E0E7FF" stroke-linecap="round"/>
<path d="M5 9C2.85996 9 1.11211 10.6806 1.00488 12.7939L1 13V14H0V13C0 10.3247 2.10111 8.14053 4.74316 8.00684L5 8H7L7.25684 8.00684C9.89889 8.14053 12 10.3247 12 13V14H11V13C11 10.7909 9.20914 9 7 9H5Z" fill="#E0E7FF"/>
</svg>
