<svg width="19" height="19" viewBox="0 0 19 19" fill="none" xmlns="http://www.w3.org/2000/svg">
<path d="M9.5 -5.1675e-07C14.7408 -5.1675e-07 19 4.25922 19 9.5C19 14.7408 14.7408 19 9.5 19C4.25916 19 0 14.7408 0 9.5C0 4.25916 4.25922 -5.1675e-07 9.5 -5.1675e-07ZM9.5 1.5834C5.12984 1.5834 1.58333 5.13009 1.58333 9.50006C1.58333 13.87 5.13002 17.4167 9.5 17.4167C13.87 17.4167 17.4167 13.87 17.4167 9.50006C17.4167 5.13009 13.87 1.5834 9.5 1.5834ZM9.5 -5.1675e-07C11.9067 -5.1675e-07 13.8542 4.25922 13.8542 9.5C13.8542 14.7408 11.9067 19 9.5 19C7.09332 19 5.1458 14.7408 5.1458 9.5C5.1458 4.25916 7.09332 -5.1675e-07 9.5 -5.1675e-07ZM0.791353 8.70865H18.208V10.292H0.791353V8.70865ZM9.5 1.58333C7.96418 1.58333 6.7292 5.13003 6.7292 9.5C6.7292 13.87 7.96418 17.4167 9.5 17.4167C11.0358 17.4167 12.2708 13.87 12.2708 9.5C12.2708 5.13003 11.0358 1.58333 9.5 1.58333Z" fill="#AAAAAA"/>
</svg>
