<svg width="12" height="16" viewBox="0 0 12 16" fill="none" xmlns="http://www.w3.org/2000/svg">
<path d="M6 0.5C9.00766 0.5 11.5 3.11102 11.5 6.40039C11.4999 8.02849 10.5935 10.3315 9.38086 12.2588C8.78015 13.2135 8.12247 14.0461 7.49902 14.6328C6.84991 15.2437 6.33058 15.5 6 15.5C5.66942 15.5 5.15009 15.2437 4.50098 14.6328C3.87753 14.0461 3.21985 13.2135 2.61914 12.2588C1.40651 10.3315 0.500145 8.02849 0.5 6.40039C0.5 3.11102 2.99234 0.5 6 0.5Z" stroke="#E0E7FF"/>
<path d="M5.99988 4.1571C7.11399 4.1571 8.07117 5.13069 8.07117 6.40027C8.07101 7.6697 7.1139 8.64246 5.99988 8.64246C4.88592 8.64237 3.92874 7.66965 3.92859 6.40027C3.92859 5.13074 4.88583 4.15719 5.99988 4.1571Z" stroke="#E0E7FF"/>
</svg>
